<?xml version="1.0" encoding="UTF-8" standalone="no"?>
<svg
   xmlns:dc="http://purl.org/dc/elements/1.1/"
   xmlns:cc="http://creativecommons.org/ns#"
   xmlns:rdf="http://www.w3.org/1999/02/22-rdf-syntax-ns#"
   xmlns:svg="http://www.w3.org/2000/svg"
   xmlns="http://www.w3.org/2000/svg"
   xmlns:sodipodi="http://sodipodi.sourceforge.net/DTD/sodipodi-0.dtd"
   xmlns:inkscape="http://www.inkscape.org/namespaces/inkscape"
   width="56"
   height="56"
   version="1.1"
   id="svg5168"
   sodipodi:docname="nov-white-logo.svg"
   inkscape:version="0.92.4 (5da689c313, 2019-01-14)">
  <metadata
     id="metadata5174">
    <rdf:RDF>
      <cc:Work
         rdf:about="">
        <dc:format>image/svg+xml</dc:format>
        <dc:type
           rdf:resource="http://purl.org/dc/dcmitype/StillImage" />
        <dc:title></dc:title>
      </cc:Work>
    </rdf:RDF>
  </metadata>
  <defs
     id="defs5172" />
  <sodipodi:namedview
     pagecolor="#ffffff"
     bordercolor="#666666"
     borderopacity="1"
     objecttolerance="10"
     gridtolerance="10"
     guidetolerance="10"
     inkscape:pageopacity="0"
     inkscape:pageshadow="2"
     inkscape:window-width="1920"
     inkscape:window-height="1027"
     id="namedview5170"
     showgrid="false"
     inkscape:pagecheckerboard="true"
     inkscape:zoom="13.044643"
     inkscape:cx="15.606798"
     inkscape:cy="11.287096"
     inkscape:window-x="1072"
     inkscape:window-y="317"
     inkscape:window-maximized="1"
     inkscape:current-layer="svg5168" />
  <g
     id="g5166"
     style="fill:#ffffff;fill-rule:evenodd"
     transform="translate(0,32)">
    <path
       d="M 27.995,2 C 22.337,2 17.75,6.587 17.75,12.245 c 0,0.924 0.125,1.818 0.354,2.67 l 0.056,0.109 c 0.47,0.792 2.226,2.546 8.163,1.07 3.656,-0.909 7.304,-3.415 9.659,-5.803 0.045,0.203 0.081,0.407 0.112,0.613 -2.051,2.718 -5.586,5.775 -9.757,7.042 -2.832,0.86 -4.823,1.023 -6.217,0.85 a 10.222,10.222 0 0 0 7.875,3.694 C 33.653,22.49 38.24,17.903 38.24,12.245 38.24,6.587 33.653,2 27.995,2"
       id="path5162"
       inkscape:connector-curvature="0" />
    <path
       d="M 16.2,12.196 C 16.2,8.471 17.867,5.154 20.464,3 H 12.819 V 9.853 L 8.838,3 H 2 v 18.392 h 6.78 v -6.853 l 3.98,6.853 h 7.703 C 17.866,19.238 16.2,15.921 16.2,12.196 Z M 54,3 43.196,21.392 H 35.52 c 2.597,-2.154 4.263,-5.471 4.263,-9.196 C 39.783,8.471 38.117,5.154 35.52,3 h 7.645 V 9.853 L 47.146,3 Z"
       id="path5164"
       inkscape:connector-curvature="0" />
  </g>
</svg>
